<svg xmlns="http://www.w3.org/2000/svg" width="1200" height="630" viewBox="0 0 1200 630" role="img" aria-labelledby="title desc"><title id="title">sYYmmEtra</title><desc id="desc">Turning daily AI learning into engineering judgment.</desc><rect width="1200" height="630" fill="#F7FBFF"/><g fill="none" stroke-linecap="round"><path d="M112 144H1088" stroke="#13243B" stroke-width="4" opacity=".14"/><path d="M112 486H1088" stroke="#13243B" stroke-width="4" opacity=".14"/><path d="M178 184V446" stroke="#0A84FF" stroke-width="18"/><path d="M218 184V446" stroke="#665CFF" stroke-width="18"/><path d="M258 184V446" stroke="#1FA78F" stroke-width="18"/><path d="M178 274H466C512 274 532 296 532 336s20 62 66 62h154" stroke="#0A84FF" stroke-width="11"/><path d="M218 350h194c42 0 57-25 57-62s20-62 62-62h119" stroke="#665CFF" stroke-width="11"/><path d="M258 414h162c44 0 66-20 66-58s20-58 61-58h104" stroke="#1FA78F" stroke-width="11"/></g><g fill="#13243B" font-family="-apple-system,BlinkMacSystemFont,'Segoe UI',sans-serif"><text x="802" y="264" font-size="58" font-weight="700" letter-spacing="-2">sYYmmEtra</text><text x="802" y="322" font-size="26" fill="#53657A">Learning Threads</text><text x="802" y="386" font-size="27">Turning daily AI learning into</text><text x="802" y="422" font-size="27">engineering judgment.</text></g></svg>
